<svg width="193" height="193" viewBox="0 0 193 193" fill="none" xmlns="http://www.w3.org/2000/svg">
<path fill-rule="evenodd" clip-rule="evenodd" d="M17 66.6935C17 61.8922 20.893 58 25.6953 58H157.367C162.169 58 166.062 61.8922 166.062 66.6935V83.0507C166.451 82.9134 166.869 82.8387 167.305 82.8387H172.273C174.332 82.8387 176 84.5068 176 86.5645V105.194C176 107.251 174.332 108.919 172.273 108.919H167.305C166.869 108.919 166.451 108.845 166.062 108.707V126.306C166.062 131.108 162.169 135 157.367 135H25.6953C20.893 135 17 131.108 17 126.306V66.6935ZM24.4531 71.6613C24.4531 67.5459 27.79 64.2097 31.9062 64.2097H151.156C155.273 64.2097 158.609 67.5459 158.609 71.6613V121.339C158.609 125.454 155.273 128.79 151.156 128.79H31.9062C27.79 128.79 24.4531 125.454 24.4531 121.339V71.6613Z" fill="white"/>
<path d="M36.875 69.1774C33.4448 69.1774 30.6641 71.9576 30.6641 75.3871V117.613C30.6641 121.042 33.4448 123.823 36.875 123.823H49.2969V69.1774H36.875Z" fill="#EB1D1D"/>
</svg>
