<svg width="193" height="193" viewBox="0 0 193 193" fill="none" xmlns="http://www.w3.org/2000/svg">
<path fill-rule="evenodd" clip-rule="evenodd" d="M17 66.8065C17 61.9428 20.9175 58 25.75 58H158.25C163.082 58 167 61.9428 167 66.8065V83.376C167.391 83.237 167.812 83.1613 168.25 83.1613H173.25C175.321 83.1613 177 84.8511 177 86.9355V105.806C177 107.891 175.321 109.581 173.25 109.581H168.25C167.812 109.581 167.391 109.505 167 109.366V127.194C167 132.057 163.082 136 158.25 136H25.75C20.9175 136 17 132.057 17 127.194V66.8065ZM24.5 71.8387C24.5 67.6699 27.8578 64.2903 32 64.2903H152C156.142 64.2903 159.5 67.6698 159.5 71.8387V122.161C159.5 126.33 156.142 129.71 152 129.71H32C27.8578 129.71 24.5 126.33 24.5 122.161V71.8387Z" fill="white"/>
<path d="M37 69.3226C33.5482 69.3226 30.75 72.1389 30.75 75.6129V118.387C30.75 121.861 33.5482 124.677 37 124.677H147C150.452 124.677 153.25 121.861 153.25 118.387V75.6129C153.25 72.1389 150.452 69.3226 147 69.3226H37Z" fill="#23E972"/>
</svg>
